<svg xmlns="http://www.w3.org/2000/svg" viewBox="0 0 800 600" width="800" height="600" role="img" aria-label="Резюме и собеседование">
  <defs>
    <linearGradient id="bg" x1="0" y1="0" x2="1" y2="1">
      <stop offset="0%" stop-color="#efe6fb"/>
      <stop offset="100%" stop-color="#c9b6f0"/>
    </linearGradient>
  </defs>
  <rect width="800" height="600" fill="url(#bg)"/>
  <circle cx="589" cy="504" r="117" fill="#8a6fd4" opacity="0.09"/>
  <circle cx="663" cy="169" r="178" fill="#8a6fd4" opacity="0.11"/>
  <circle cx="93" cy="570" r="149" fill="#8a6fd4" opacity="0.14"/>
  <rect x="286" y="150" width="228" height="290" rx="22" fill="#f7f3fe"/>
    <circle cx="336" cy="204" r="26" fill="#8a6fd4"/>
    <rect x="376" y="188" width="106" height="14" rx="7" fill="#3b2a63"/>
    <rect x="376" y="212" width="74" height="12" rx="6" fill="#c9b6f0"/>
    <g fill="#c9b6f0">
      <rect x="318" y="262" width="164" height="13" rx="6"/>
      <rect x="318" y="294" width="140" height="13" rx="6"/>
      <rect x="318" y="326" width="164" height="13" rx="6"/>
      <rect x="318" y="358" width="102" height="13" rx="6"/>
    </g>
    <circle cx="500" cy="404" r="42" fill="#3b2a63"/>
    <path d="M482 404 l13 14 l24 -28" stroke="#f7f3fe" stroke-width="11" fill="none" stroke-linecap="round" stroke-linejoin="round"/>
  <text x="400" y="480" text-anchor="middle" font-family="Jost, 'Helvetica Neue', Arial, sans-serif" font-size="36" font-weight="600" fill="#3b2a63">Резюме и</text>
  <text x="400" y="524" text-anchor="middle" font-family="Jost, 'Helvetica Neue', Arial, sans-serif" font-size="36" font-weight="600" fill="#3b2a63">собеседование</text>
  <text x="400" y="562" text-anchor="middle" font-family="Jost, 'Helvetica Neue', Arial, sans-serif" font-size="20" letter-spacing="2" fill="#3b2a63" opacity="0.65">БИЗНЕС И КАРЬЕРА</text>
</svg>
